<svg id="eKuCmRWBTkF1" xmlns="http://www.w3.org/2000/svg" xmlns:xlink="http://www.w3.org/1999/xlink" viewBox="0 0 10000 10000" shape-rendering="geometricPrecision" text-rendering="geometricPrecision"><path d="M4963.708673,115.877951c-532.707628,7.664858-1092.242257,61.318863-1425.663578,226.113309s-532.707627,298.929459-843.134374,471.388763-341.086178,191.621449-762.653365,394.740184-743.49122,613.188634-942.777527,885.291092-360.248323,716.664219-421.567187,919.782954-268.270028,950.442385-287.432173,1053.917967-122.637727,467.556335-172.459304,751.156079-30.659431,927.447812,42.156719,1241.706987s210.783593,555.702201,348.751036,777.983081s344.918609,555.702201,490.550909,808.642513s310.426746,521.210341,486.718479,743.491221s620.853494,609.356206,827.804658,758.820936s471.388764,275.934886,816.307371,402.405042s1034.755822,180.124163,1214.879984,210.783594s977.269387,76.648579,1333.685282,84.313437s1130.566548-233.778168,1322.187996-325.756463s912.118094-567.199488,1130.566546-777.983081s758.820937-835.469516,900.620809-1076.912541s218.448452-459.891477,578.696775-1145.896263s341.086178-1083.502416,348.751036-1519.020596-34.491862-699.955778-183.956591-1159.847255-456.059046-935.112669-697.502072-1375.842001-264.437599-693.669644-708.99936-1126.734118-869.961376-636.183209-1349.014998-777.983081-567.199489-165.627649-946.609957-237.610597-333.421319-206.951163-1099.907114-206.951163Z" transform="translate(0 0.000001)" fill="#062d10" stroke-width="20"/></svg>
