<svg id="eonp2NK5sDr1" xmlns="http://www.w3.org/2000/svg" xmlns:xlink="http://www.w3.org/1999/xlink" viewBox="0 0 10000 10000" shape-rendering="geometricPrecision" text-rendering="geometricPrecision"><path d="M5000,71.522982c-328.629209,3.600272-623.8515,65.495299-908.272974,122.409242s-720.054366,252.019028-1119.684539,453.634251-529.239959,244.818485-892.867414,432.03262-511.2386,324.024465-745.256269,590.44458-234.017669,273.62066-424.832076,662.450017-270.020387,640.848386-453.63425,1076.481277-342.025823,885.66687-374.42827,1123.284811-36.00272,604.845667-18.00136,824.462249s162.012233,680.451377,266.420116,961.272579s352.82664,795.660075,489.636969,1040.478559s370.827998,835.263064,669.65056,1130.485354s720.054365,608.445939,990.074753,745.256269s734.455454,217.824077,1202.490792,367.227727s849.664152,327.624736,1227.692694,331.225008s1170.088345-111.608426,1695.728032-331.225008s910.868773-496.837513,1224.092422-727.25491s961.272578-817.261705,1159.287529-1011.676384s446.433707-586.844308,532.840231-788.459531s212.416038-752.456812,255.6193-1076.481277s3.600272-680.451375,21.601631-1119.684539s39.60299-842.463609-21.601631-1195.290248-255.6193-824.46225-439.233163-1087.282093-856.864695-892.867414-1011.676384-1054.879646-651.649201-637.248115-914.469045-835.263065-964.872851-439.233162-1108.883724-475.235881-707.244606-158.411961-1302.29393-158.411961Z" fill="#155b2c" stroke-width="20"/></svg>
