<svg cache-id="f005c2e1bfb143ca851cef3298a4fb63" id="eLAQEP9xkH61" xmlns="http://www.w3.org/2000/svg" xmlns:xlink="http://www.w3.org/1999/xlink" viewBox="0 0 350 350" shape-rendering="geometricPrecision" text-rendering="geometricPrecision"><path d="M0,250c0-.72878.00312-1.45684.00934-2.18416c129.29043-16.03342,231.77254-118.51578,247.8059-247.8065.72751-.00623,1.45577-.00935,2.18475-.00935s1.45724.00312,2.18475.00935c16.03336,129.29071,118.51548,231.77307,247.8059,247.8065.00622.72732.00934,1.45537.00934,2.18416s-.00312,1.45684-.00934,2.18416c-129.29043,16.03342-231.77254,118.51578-247.8059,247.8065-.72751.00623-1.45577.00935-2.18475.00935s-1.45724-.00312-2.18475-.00935C231.78188,370.69995,129.29976,268.21759,0.00934,252.18416C0.00312,251.45684,0,250.72879,0,250Z" transform="matrix(.7 0 0 0.699999 0.000007 0.00025)" fill="#1b8454" stroke-width="0"/></svg>
