<svg id="eS2hGEQKOZd1" xmlns="http://www.w3.org/2000/svg" xmlns:xlink="http://www.w3.org/1999/xlink" viewBox="0 0 900 400" shape-rendering="geometricPrecision" text-rendering="geometricPrecision"><rect width="900" height="400" rx="0" ry="0" fill="#2b9273" stroke-width="0"/><path d="M168.42278,410.46425c-30.46504-41.88943-54.26586-66.64228-54.26586-114.24391s-2.8561-52.3618,18.08862-84.7309c13.96314-21.5794,24.75285-35.54255,32.36911-41.88943.4667-1.2419.93089-2.47804,1.39257-3.70841c15.17886-112.87609,61.31538-207.27929,74.77004-233.3477c7.36502-14.26972,68.31242-18.69097,182.84221-13.26373c12.98188-1.94794,26.61036-3.87358,40.88544-5.77692l642.62199,23.80082l19.99268,527.42604L274.0984,475.20247c-50.14038-15.23252-85.36559-36.81193-105.67561-64.73821l-.00001-.00001Z" transform="translate(.000001 0)" fill="#1b8454" stroke-width="1.8"/><path d="M237.921159,405.704087c-23.800815-63.786182-16.184554-129.476431,30.465042-180.886189s192.31058-126.620331,260.856925-145.660983s266.56912-36.177238,362.72441-6.664228s136.140658,89.49106,152.325212,115.19594s27.608945,226.583752-6.664228,255.144729-678.799224,19.992684-710.216299,10.472358-65.690247,16.184553-89.491062-47.601627Z" transform="translate(0 0.000002)" fill="#0d7338" stroke-width="1.8"/><path d="M144.621967,245.762615c12.376423-29.51301,65.690247-98.059355,117.100006-131.380495s118.05204-67.594313,157.085375-79.970737s79.018702-9.520326,81.8748-9.520326-45.697565,28.560977-60.930086,36.177238-135.188625,50.457726-183.742287,93.299192-93.299193,75.210574-100.915454,87.586997-22.848782,33.32114-10.472354,3.808131Z" transform="translate(.000005 0.000001)" fill="#2b9273" stroke-width="1.8"/><path d="M692.0407,86.77318c4.76016,20.94472,14.280487,39.03333,26.656907,57.12195s45.697563,35.22521,48.553663,65.69025-26.65691,51.40976-39.98537,59.02602-73.30651,7.61626-103.77155,1.90406-41.88943-40.9374-43.7935-59.02602s10.472364-43.793494,30.465044-54.265854c9.50284-4.97768,22.965436-20.438206,26.586566-46.611056c23.31746-15.41146,39.39023-25.37437,53.62673-32.7072.41203,2.79525.95222,5.747,1.6615,8.86784l.00001.00001Z" transform="matrix(.920743 0.390169-.390169 0.920743-159.663001-166.940419)" fill="#1b8454" stroke-width="1.8"/><path d="M636.822807,162.935781c-25.70488,9.520326-31.417075,11.424391-33.32114,29.51301s20.944717,24.752846,38.081303,23.800814s37.12927-14.280488,39.033335-30.465042-24.752846-29.51301-43.793498-22.848782Z" transform="matrix(.997917 0.064517-.064517 0.997917-279.653738 30.377538)" fill="#2b9273" stroke-width="1.8"/><path d="M212.216279,129.614641c21.89675-19.992684,59.026021-61.882116,126.620333-92.347159s100.915451-41.889435,140.900819-47.60163q39.985368-5.712195,46.649596-42.841467Q395.958566,-36.99106,340.740676,-9.382116c-55.21789,27.608944-121.86017,106.627647-130.428463,119.004071s-9.520324,30.465046,1.904066,19.992686Z" transform="translate(.000001 0.000002)" fill="#0d7338" stroke-width="1.8"/><path d="M263.626038,402.84799c-19.040651-37.129271-20.944717-40.937401-18.088619-54.265857s14.280489-15.232522,25.70488-15.232522s28.560977,33.321138,66.64228,59.026018s303.698389,69.498378,413.182135,10.472358s143.756918-152.325214,149.469114-171.365865s26.656912-45.697563,51.409759-43.793498s15.23252,204.687003,16.184553,204.687003s49.505693,17.136586-15.232522,38.081303q-64.738215,20.944717-629.293532,13.328456-40.937402-3.80813-59.978048-40.937396Z" transform="translate(.000006 0.000006)" fill="#1b8454" stroke-width="1.8"/></svg>
