<svg id="eqkpFtyJ3Ql1" xmlns="http://www.w3.org/2000/svg" xmlns:xlink="http://www.w3.org/1999/xlink" viewBox="0 0 200 200" shape-rendering="geometricPrecision" text-rendering="geometricPrecision"><g><g transform="translate(100 100)"><path d="M-88,0c0-48.60106,39.39894-88,88-88s88,39.39894,88,88-39.39894,88-88,88-88-39.39894-88-88Z" fill="#252021" stroke-width="15"/></g><path d="M86.73106,68.48362v-24.93539c4.26229-.99295,8.7043-1.51798,13.26894-1.51798s9.00663.52502,13.26892,1.51797v24.9354L119.1863,74.401l7.45634,3.79919l23.47425-7.62725c4.46342,7.51321,7.28541,16.11579,7.97163,25.31341l-23.24523,7.55283-3.79919,7.45634-1.30911,8.26541l14.13142,19.45022c-5.85188,6.6918-13.21024,12.03264-21.54598,15.49341l-14.05502-19.34507L100,133.45038l-8.26541,1.30911-14.05502,19.34507c-8.33574-3.46077-15.6941-8.80161-21.54598-15.49341l14.13142-19.45022-1.30911-8.26541-3.79919-7.45634-23.24523-7.55283c.68622-9.19762,3.5082-17.8002,7.97163-25.31341l23.47425,7.62725L80.8137,74.401l5.91736-5.91738ZM100,120.47467c11.30785,0,20.47467-9.16682,20.47467-20.47467s-9.16682-20.47467-20.47467-20.47467-20.47467,9.16682-20.47467,20.47467s9.16682,20.47467,20.47467,20.47467Z" transform="matrix(.7 0 0 0.7 31 30.352817)" fill="#decece" stroke-width="0.5"/></g></svg>
