<svg id="ew0i1xIEtFK1" xmlns="http://www.w3.org/2000/svg" xmlns:xlink="http://www.w3.org/1999/xlink" viewBox="0 0 900 400" shape-rendering="geometricPrecision" text-rendering="geometricPrecision"><rect width="900" height="400" rx="0" ry="0" fill="#2b9273" stroke-width="0"/><path d="M608.50764,-48.58957C622.90298,8.70387,632.36432,52.14419,638.61157,86.01546c18.50132-14.00841,26.30349-17.41483,38.39813-17.41483c17.177,0,37.7894,18.32213,36.64427,33.20887s-19.46727,61.8372-25.19293,76.72393-20.6124,85.885-12.59647,132.83546-6.73187,38.93453-24.5509,42.36993c-5.21163,1.00477-11.44586.44223-18.14576-1.00002-8.38771,48.29219-17.95056,93.54072-24.66027,109.72297-9.90071,23.87818-191.02546,15.14226-543.37426-26.20776l-166.85608-6.98874l15.72466-477.85485c433.88405-115.89655,665.38595-115.89655,694.50568,0v.00001Z" transform="translate(28.628334-5.725667)" fill="#1b8454" stroke-width="1.8"/><path d="M423.585797,423.539603c-27.787408-132.942786-24.810185-176.608714-25.802593-207.373344s80.385-67.483705,115.119261-73.43815s113.61257-9.924075,133.975004-7.93926q20.362434,1.984815,14.918774-2.977223-72.478405-61.529261-158.817852-62.521669c-86.339447-.992408-121.073707,63.514075-131.990189,88.324261s-11.90889,45.650742-11.90889,70.460928s43.665926,163.747227,50.612778,186.572598s41.681112,141.834643,13.893707,8.891859Z" transform="translate(-2.977219-11.908887)" fill="#0d7338" stroke-width="1.8"/><path d="M387.859129,237.006815c18.855742,8.931667,19.236539,9.924074,40.688705,9.924074s72.445742-6.946852,104.20278-18.855741s22.82537-14.886108,52.597593-23.817777q29.772223-8.931669,24.810186,0q5.954444,4.962035-12.901297,11.908887c-18.855741,6.946852-52.564928,24.810187-89.796539,30.764631s-57.079758,11.094084-78.912723,11.094084-20.840557-1.17001-40.688705-11.094084-18.855744-18.855742,0-9.924074Z" transform="translate(.992409 0.000001)" fill="#0d7338" stroke-width="1.8"/><path d="M520.841726,14.70755c39.696297.992407,58.552037,13.893704,77.407779,23.817778s45.650745,27.787407,45.650745,16.870926-27.78741-36.361951-65.498893-55.396254-131.990182-36.540513-183.595372,0q-51.60519,36.540513-55.57482,40.510142-4.615212-4.501487-4.615212,8.931666c0,13.433153,1.637989,31.757039,4.615211,35.726668s4.962035,6.863499,10.916481.992407s28.779821-30.764631,70.46093-52.597595s71.45334-20.840549,100.233151-18.855738Z" transform="matrix(.868724 0 0 0.868719 65.413183 3.472979)" fill="#0d7338" stroke-width="1.8"/><path d="M203.271347,246.93089c31.757037,0,53.59-9.924074,61.52926-9.924074s-13.893704,12.723695-25.802593,16.870926-104.20278,15.241315-137.944633,4.147232-56.567223-18.040935-68.476113-29.949825-9.924077-11.908894-4.962039-17.863336s27.787408,16.870927,81.37741,26.795001s75.422968,9.924079,94.278708,9.924076Z" transform="matrix(.926859-.078859 0.078859 0.926858 6.878677 46.454939)" fill="#0d7338" stroke-width="1.8"/><path d="M127.528622,16.249707c33.069205,0,36.046428,4.412287,57.879391,11.359139s28.779814,11.908889,35.726666,16.870926q6.946852,4.962037,15.878518,15.878519q4.962037,1.984814,8.931667,16.870926c3.96963,14.886112,1.984814,17.863334-1.984815,17.863334s-13.893705-4.962037-27.787409-13.893704-32.749446-20.840556-53.590002-26.795001-115.119264-25.802593-181.610562,6.946852q-66.491298,32.749445-1.984815-10.916482Q7.767077,31.578475,49.448189,22.646808c41.681112-8.931667,52.950494-6.839758,78.080433-6.397101Z" transform="matrix(.999586-.02878 0.02878 0.999586 5.285135 13.591961)" fill="#0d7338" stroke-width="1.8"/></svg>
