<svg id="enPzhOxMHFj1" xmlns="http://www.w3.org/2000/svg" xmlns:xlink="http://www.w3.org/1999/xlink" viewBox="0 0 750 270" shape-rendering="geometricPrecision" text-rendering="geometricPrecision"><rect width="742" height="262" rx="28" ry="28" transform="translate(4 4)" fill="#021906" stroke-width="5"/><rect width="742" height="262" rx="28" ry="28" transform="matrix(1.000001 0 0 0.490446 3.999625 127.761435)" fill="#062d10" stroke-width="5"/><rect width="742" height="262" rx="28" ry="28" transform="matrix(.981472 0 0 0.479116 10.948 139.290985)" fill="#062d10" stroke-width="5"/><rect width="742" height="262" rx="28" ry="28" transform="matrix(1 0 0 0.4174 4 82.651)" fill="#021906" stroke-width="5"/><path d="M4,93.695238q176.703936,87.035887,355.091538,87.035887t386.908462-86.316583v135.229307q-206.362946,13.666792-380.434719,11.508877t-361.565281-11.508877L4,93.695238Z" transform="translate(0 0.000006)" fill="#062d10" stroke-width="1.5"/><path d="M4,161.309894q191.090033,68.333961,355.091538,68.333961t386.908462-81.281449v96.386848q2.147609,1.767318-6.799776,11.509031c-8.947385,9.741713-19.017653,8.56109-18.298348,8.56109q.719305,0-688.37474-.000001-13.846772-1.735907-21.579136-8.561091c-7.732364-6.825184-7.567467-37.2342-6.948-94.948389Z" transform="translate(0 0.000006)" fill="#155b2c" stroke-width="1.5"/><rect width="742" height="262" rx="28" ry="28" transform="translate(4 4)" fill="#155b2c" fill-opacity="0" stroke="#155b2c" stroke-width="5"/><path d="M200.125166,220.292892L349.740575,244.74926l192.054393-27.333588q6.473744-14.386102-4.315829-41.719681c-10.789573-27.333579-35.965243-27.33358-57.544388-27.33358q-21.579145,0-41.719681,6.473737-7.912353-46.035511-18.701926-64.018132t-20.859841-18.701926l7.912354-13.666792q5.035134-15.105403-1.43861-27.333585c-6.473744-12.228182-20.889877-16.544012-30.225822-17.263317s-24.441347,3.596525-33.79231,15.105402-7.912353,24.456366-4.315829,29.4915q3.596524,5.035134,12.947489,14.386096-15.824707,2.367888-23.737061,9.815602t-20.140536,72.185151q-38.842463-6.473739-50.35134-6.473739c-11.508877,0-46.754816,11.019715-51.070644,27.333582q-4.315828,16.313867-4.315828,44.596902Z" transform="translate(.000001 0.000004)" fill="#155b2c" stroke-width="1.5"/></svg>
